<?xml version="1.0" encoding="UTF-8"?>
<!DOCTYPE svg PUBLIC "-//W3C//DTD SVG 1.1//EN" "http://www.w3.org/Graphics/SVG/1.1/DTD/svg11.dtd">
<svg xmlns="http://www.w3.org/2000/svg" version="1.1" width="500px" height="500px" style="shape-rendering:geometricPrecision; text-rendering:geometricPrecision; image-rendering:optimizeQuality; fill-rule:evenodd; clip-rule:evenodd" xmlns:xlink="http://www.w3.org/1999/xlink">
<g><path style="opacity:0.983" fill="#000000" d="M 115.5,122.5 C 134.331,122.582 152.331,126.415 169.5,134C 184.876,141.349 198.876,150.682 211.5,162C 228.072,179.074 245.072,195.574 262.5,211.5C 263.938,211.281 265.271,210.781 266.5,210C 289.383,187.787 315.049,169.453 343.5,155C 386.298,139.599 419.798,151.099 444,189.5C 464.427,227.449 462.427,264.116 438,299.5C 427.243,312.789 413.743,321.955 397.5,327C 392.5,327.667 387.5,327.667 382.5,327C 374.379,323.44 366.712,319.107 359.5,314C 369.135,312.716 378.801,311.049 388.5,309C 411.636,300.635 426.469,284.468 433,260.5C 439.744,222.141 425.244,195.641 389.5,181C 359.938,173.89 333.938,180.557 311.5,201C 304.02,207.903 296.354,214.569 288.5,221C 284.244,224.749 280.578,228.916 277.5,233.5C 279.04,237.213 281.207,240.547 284,243.5C 306.129,268.629 329.295,292.796 353.5,316C 386.923,346.152 418.757,344.319 449,310.5C 475.78,275.324 481.113,236.99 465,195.5C 452.573,167.404 432.073,147.904 403.5,137C 388.903,134.091 374.236,133.758 359.5,136C 345.13,140.769 331.63,147.269 319,155.5C 332.5,139.967 349.667,129.801 370.5,125C 405.249,120.805 434.416,131.639 458,157.5C 492.089,198.427 500.089,244.093 482,294.5C 467.652,329.18 443.485,354.346 409.5,370C 373.106,381.326 339.44,375.993 308.5,354C 300.796,346.627 292.796,339.627 284.5,333C 266.29,314.292 248.29,295.458 230.5,276.5C 218.06,286.104 206.06,296.27 194.5,307C 180.202,319.825 164.202,330.159 146.5,338C 121.532,347.779 97.1985,346.446 73.5,334C 65.9717,329.736 58.9717,324.736 52.5,319C 44.9336,311.434 37.4336,303.934 30,296.5C 29.5,296.833 29,297.167 28.5,297.5C 41.3864,320.553 59.3864,338.387 82.5,351C 110.862,362.637 138.195,360.637 164.5,345C 173.01,339.245 181.343,333.245 189.5,327C 192.034,325.066 194.701,323.732 197.5,323C 184.655,337.073 169.988,348.739 153.5,358C 109.265,375.286 71.4314,366.119 40,330.5C 3.31027,284.007 -2.3564,234.007 23,180.5C 44.3702,146.065 75.2035,126.732 115.5,122.5 Z M 306.5,324.5 C 304.317,319.473 301.483,314.807 298,310.5C 274.186,281.531 250.852,252.198 228,222.5C 217.241,209.071 205.741,196.237 193.5,184C 167.521,159.341 136.854,150.008 101.5,156C 58.3359,172.184 38.1693,203.351 41,249.5C 45.3827,278.52 59.5494,301.354 83.5,318C 92.4776,323.27 102.144,326.437 112.5,327.5C 122.6,326.633 131.934,323.466 140.5,318C 141.944,317.219 143.277,317.386 144.5,318.5C 130.215,330.982 113.548,336.148 94.5,334C 68.823,328.658 49.6563,314.492 37,291.5C 26.641,270.68 22.9744,248.68 26,225.5C 32.7085,185.121 55.2085,157.621 93.5,143C 119.781,136.659 145.115,139.326 169.5,151C 177.999,155.748 186.332,160.748 194.5,166C 206.304,176.803 217.804,187.97 229,199.5C 264.991,240.494 297.325,284.161 326,330.5C 341.459,345.659 360.126,352.993 382,352.5C 392.873,352.746 403.373,350.912 413.5,347C 421.486,343.342 429.153,339.175 436.5,334.5C 437.229,336.595 436.563,338.428 434.5,340C 400.658,365.879 364.658,369.213 326.5,350C 317.416,344.252 309.583,337.085 303,328.5C 298.742,321.298 299.909,319.965 306.5,324.5 Z M 371.5,161.5 C 395.386,157.786 413.72,165.953 426.5,186C 426.167,186.5 425.833,187 425.5,187.5C 416.239,180.702 406.239,175.202 395.5,171C 385.235,168.081 375.235,167.415 365.5,169C 355.393,172.202 345.393,175.702 335.5,179.5C 333.431,179.176 333.098,178.342 334.5,177C 346.417,170.537 358.75,165.37 371.5,161.5 Z M 111.5,181.5 C 126.388,179.643 140.054,182.809 152.5,191C 175.64,210.14 196.806,231.306 216,254.5C 216.667,255.833 216.667,257.167 216,258.5C 201.381,272.792 185.881,285.959 169.5,298C 151.243,309.652 131.576,313.319 110.5,309C 86.728,300.895 71.5613,284.728 65,260.5C 59.3299,230.714 68.4965,206.881 92.5,189C 98.604,185.583 104.937,183.083 111.5,181.5 Z"/></g>
</svg>
